<?xml version="1.0" standalone="no"?>
<!DOCTYPE svg PUBLIC "-//W3C//DTD SVG 20010904//EN"
 "http://www.w3.org/TR/2001/REC-SVG-20010904/DTD/svg10.dtd">
<svg version="1.0" xmlns="http://www.w3.org/2000/svg"
 width="70.000000pt" height="70.000000pt" viewBox="0 0 70.000000 70.000000"
 preserveAspectRatio="xMidYMid meet">
<metadata>
Created by potrace 1.11, written by Peter Selinger 2001-2013
</metadata>
<g transform="translate(0.000000,70.000000) scale(0.100000,-0.100000)"
fill="#000000" stroke="none">
<path d="M290 689 c0 -4 -8 -6 -17 -5 -10 2 -32 -5 -50 -15 -17 -10 -34 -15
-37 -12 -3 4 -6 1 -6 -5 0 -7 -5 -12 -11 -12 -16 0 -99 -82 -93 -91 3 -5 1 -9
-4 -9 -17 0 -53 -90 -56 -142 0 -16 -4 -28 -9 -28 -4 0 -3 -9 3 -19 7 -14 6
-21 -3 -24 -9 -4 -9 -6 1 -6 7 -1 10 -6 6 -12 -8 -14 13 -81 41 -130 27 -49
74 -101 108 -118 15 -8 27 -18 27 -23 0 -4 8 -8 18 -8 10 0 22 -3 26 -7 10
-11 34 -14 115 -18 41 -3 79 -1 85 3 11 7 32 12 54 14 6 1 12 5 12 10 0 5 5 6
10 3 6 -3 10 -1 10 4 0 6 7 11 15 11 33 0 156 151 147 183 -1 4 2 7 7 7 17 0
13 180 -5 231 -10 27 -22 49 -26 49 -4 0 -8 7 -8 15 0 8 -5 15 -12 15 -6 0 -9
3 -5 6 14 14 -115 114 -148 114 -8 0 -15 5 -15 11 0 6 -9 8 -20 4 -11 -3 -20
-3 -20 2 0 4 -11 9 -25 9 -15 1 -22 -2 -18 -9 4 -6 1 -7 -8 -1 -16 11 -89 13
-89 3z"/>
</g>
</svg>
