<?xml version="1.0" encoding="utf-8"?>
<!-- Generator: Adobe Illustrator 16.0.4, SVG Export Plug-In . SVG Version: 6.00 Build 0)  -->
<!DOCTYPE svg PUBLIC "-//W3C//DTD SVG 1.1//EN" "http://www.w3.org/Graphics/SVG/1.1/DTD/svg11.dtd">
<svg version="1.1" id="Layer_1" xmlns="http://www.w3.org/2000/svg" xmlns:xlink="http://www.w3.org/1999/xlink" x="0px" y="0px"
	 width="2876.003px" height="2016.003px" viewBox="-0.003 -0.003 2876.003 2016.003"
	 enable-background="new -0.003 -0.003 2876.003 2016.003" xml:space="preserve">
<rect x="-0.003" y="-0.004" fill="#EE6836" width="2876.003" height="2016.004"/>
<path fill="#FFFFFF" d="M-922.167,615.44"/>
<path fill="#F07F55" d="M2876,333.494c0,0-2289.771,257.949-2876.003,989.805V2016H2876V333.494z"/>
<g>
	<g>
		<path fill="#FBB714" d="M1343.946,454.546c39.266-14.194,72.332,8.34,73.48,50.077l11.269,409.592
			c1.148,41.737-19.132,49.113-45.067,16.393l-254.982-321.694c-25.935-32.72-15.028-71.105,24.237-85.299L1343.946,454.546z"/>
	</g>
	<g>
		<path fill="#F8F084" d="M1890.303,1462.31c-250.907,249.677-656.727,248.714-906.421-2.145
			c-249.693-250.89-248.792-656.746,2.113-906.438c250.938-249.757,656.727-248.739,906.453,2.144
			C2142.155,806.768,2141.224,1212.538,1890.303,1462.31z"/>
		<path fill="#F1682C" d="M1438.164,1671.714c-177.878,0-344.941-69.422-470.427-195.482
			c-125.063-125.654-193.709-292.5-193.29-469.793c0.404-177.295,69.826-343.809,195.481-468.855
			c125.236-124.653,291.522-193.3,468.188-193.3c177.896,0,344.973,69.44,470.474,195.522
			c258.146,259.389,257.151,680.472-2.222,938.648C1781.134,1603.084,1614.848,1671.714,1438.164,1671.714z M1438.117,389.832
			c-164.546,0-319.414,63.938-436.057,180.039c-117.03,116.462-181.7,271.547-182.072,436.676
			c-0.373,165.127,63.565,320.521,180.037,437.552c116.862,117.421,272.458,182.073,438.139,182.073
			c164.564,0,319.43-63.922,436.073-180.007c241.582-240.463,242.515-632.646,2.066-874.228
			C1759.412,454.5,1603.8,389.832,1438.117,389.832z"/>
	</g>
	<g>
		<g>
			<path fill="#F37820" d="M1333.231,1586.671c-41.752-0.091-65.116-32.575-51.918-72.188l129.515-388.738
				c13.197-39.612,34.778-39.606,47.958,0.011l129.568,389.494c13.179,39.617-10.199,71.957-51.951,71.866L1333.231,1586.671z"/>
		</g>
		<g>
			<path fill="#FBB714" d="M1721.088,1522.065c-32.043,26.768-70.822,16.9-86.176-21.927l-150.669-381.025
				c-15.354-38.827,1.182-52.695,36.743-30.818l349.625,215.078c35.562,21.877,38.441,61.677,6.398,88.444L1721.088,1522.065z"/>
		</g>
		<g>
			<path fill="#F1672A" d="M1976.674,1223.265c-7.339,41.103-43.387,58.471-80.105,38.596l-360.349-195.044
				c-36.719-19.875-32.967-41.127,8.337-47.229l406.074-59.969c41.305-6.1,69.095,22.539,61.756,63.645L1976.674,1223.265z"/>
		</g>
		<g>
			<path fill="#F37820" d="M1980.396,830.077c20.798,36.204,4.348,72.68-36.557,81.058l-401.395,82.215
				c-40.904,8.378-51.69-10.313-23.971-41.536l272.515-306.955c27.72-31.223,67.415-27.147,88.213,9.057L1980.396,830.077z"/>
		</g>
		<g>
			<path fill="#F1672A" d="M1730.52,526.488c39.203,14.366,50.048,52.882,24.099,85.592l-254.653,321.003
				c-25.949,32.709-46.227,25.324-45.061-16.412l11.455-410.323c1.166-41.736,34.194-64.13,73.397-49.765L1730.52,526.488z"/>
		</g>
		<g>
			<path fill="#FBB714" d="M1343.946,454.546c39.266-14.194,72.332,8.34,73.48,50.077l11.269,409.592
				c1.148,41.737-19.132,49.113-45.067,16.393l-254.982-321.694c-25.935-32.72-15.028-71.105,24.237-85.299L1343.946,454.546z"/>
		</g>
		<g>
			<path fill="#F1672A" d="M1001.58,647.916c20.954-36.114,60.768-40.105,88.475-8.871l271.909,306.532
				c27.707,31.234,16.913,49.921-23.987,41.525l-402.093-82.54c-40.899-8.396-57.218-44.812-36.264-80.926L1001.58,647.916z"/>
		</g>
		<g>
			<path fill="#F37820" d="M863.616,1016.117c-7.16-41.135,20.774-69.784,62.076-63.667l405.323,60.035
				c41.302,6.118,45.044,27.376,8.317,47.234l-361.08,195.239c-36.727,19.859-72.635,2.452-79.795-38.682L863.616,1016.117z"/>
		</g>
		<g>
			<g>
				<path fill="#FBB714" d="M994.585,1386.867c-31.926-26.908-28.943-66.811,6.628-88.673l349.093-214.557
					c35.571-21.862,52.099-7.988,36.728,30.832l-151.118,381.657c-15.371,38.82-54.068,48.566-85.994,21.659L994.585,1386.867z"/>
			</g>
			<path fill="#FBB714" d="M1187.816,1534.888c-13.44,0-26.958-5.407-39.125-15.647l-155.332-130.924
				c-15.911-13.409-23.975-30.405-22.67-47.809c1.306-17.434,11.794-33.033,29.522-43.926l349.105-214.563
				c11.498-7.054,21.24-10.628,28.963-10.628c5.874,0,10.457,2.16,13.238,6.262c5.02,7.381,4.071,20.371-2.719,37.524
				l-151.105,381.643C1228.247,1520.654,1209.601,1534.888,1187.816,1534.888z M1378.28,1075.182
				c-6.914,0-16.237,3.48-26.974,10.069l-349.105,214.563c-16.673,10.239-26.523,24.798-27.721,40.974
				c-1.212,16.159,6.371,32.006,21.334,44.623l155.332,130.924c11.452,9.665,24.146,14.762,36.67,14.762
				c20.169,0,37.494-13.332,46.335-35.676l151.105-381.643c6.231-15.725,7.334-27.782,3.123-33.997
				C1386.297,1076.735,1382.911,1075.182,1378.28,1075.182z"/>
		</g>
	</g>
	<path fill="#F1672A" d="M1461.254,1044.105c-12.804,12.741-33.516,12.68-46.257-0.124s-12.694-33.503,0.108-46.26
		c12.819-12.749,33.516-12.687,46.257,0.109C1474.104,1010.633,1474.072,1031.349,1461.254,1044.105z"/>
	<g>
		<path fill="#FFFFFF" d="M939.226,830.433c6.717-14.323,27.085-11.966,45.262,5.236s12.681,28.921-12.213,26.042
			S932.509,844.755,939.226,830.433z"/>
	</g>
	<g>
		<path fill="#FFFFFF" d="M1177.826,848.426c6.717-14.323,27.085-11.967,45.262,5.236c18.177,17.203,12.681,28.921-12.213,26.042
			S1171.108,862.749,1177.826,848.426z"/>
	</g>
	<g>
		<path fill="#FFFFFF" d="M1153.889,1421.646c-13.199-8.718-7.92-28.525,11.731-44.02c19.651-15.492,30.451-8.36,23.999,15.85
			S1167.088,1430.363,1153.889,1421.646z"/>
	</g>
	<g>
		<path fill="#FFFFFF" d="M1639.855,1260.737c-13.062,8.922-29.402-3.461-36.312-27.518s3.777-31.356,23.749-16.222
			S1652.918,1251.815,1639.855,1260.737z"/>
	</g>
</g>
</svg>
