<svg _ngcontent-vcb-c62="" xmlns="http://www.w3.org/2000/svg" viewBox="0 0 83.41 83.43" ng-reflect-ng-style="[object Object]"><defs _ngcontent-vcb-c62=""><style _ngcontent-vcb-c62=""> .cls-1 { fill: #fcb814; } .cls-2 { fill: #f8f185; } .cls-3 { fill: #f2682c; } .cls-4 { fill: #f47820; } .cls-5 { fill: #f2672b; } .cls-6 { fill: #fff; } </style></defs><g _ngcontent-vcb-c62="" id="Layer_2" data-name="Layer 2"><g _ngcontent-vcb-c62="" id="Layer_1-2" data-name="Layer 1"><path _ngcontent-vcb-c62="" d="M35.79 6.93a3.24 3.24 0 0 1 4.62 3.15l.71 25.74c.07 2.62-1.2 3.09-2.83 1l-16-20.22a3.23 3.23 0 0 1 1.52-5.36z" class="cls-1"></path><circle _ngcontent-vcb-c62="" cx="41.71" cy="41.72" r="40.28" transform="rotate(-44.86 41.725 41.72)" class="cls-2"></circle><path _ngcontent-vcb-c62="" d="M41.72 83.43a41.72 41.72 0 0 1-29.43-71.28 41.72 41.72 0 1 1 58.85 59.13 41.45 41.45 0 0 1-29.42 12.15zm0-80.57a38.85 38.85 0 0 0-27.54 66.26 38.85 38.85 0 1 0 55.07-54.81A38.59 38.59 0 0 0 41.71 2.86z" class="cls-3"></path><path _ngcontent-vcb-c62="" d="M35.12 78.08a3.25 3.25 0 0 1-3.26-4.54L40 49.11c.83-2.49 2.19-2.49 3 0l8.15 24.49a3.23 3.23 0 0 1-3.26 4.52z" class="cls-4"></path><path _ngcontent-vcb-c62="" d="M59.5 74a3.24 3.24 0 0 1-5.42-1.38L44.61 48.7c-1-2.44.07-3.31 2.31-1.94l22 13.52a3.23 3.23 0 0 1 .4 5.56z" class="cls-1"></path><path _ngcontent-vcb-c62="" d="M75.56 55.24a3.25 3.25 0 0 1-5 2.43L47.88 45.41c-2.31-1.25-2.07-2.58.52-3l25.52-3.77a3.23 3.23 0 0 1 3.88 4z" class="cls-5"></path><path _ngcontent-vcb-c62="" d="M75.8 30.53a3.25 3.25 0 0 1-2.3 5.09l-25.23 5.17c-2.57.53-3.25-.65-1.51-2.61l17.13-19.29a3.23 3.23 0 0 1 5.54.57z" class="cls-4"></path><path _ngcontent-vcb-c62="" d="M60.09 11.45a3.24 3.24 0 0 1 1.52 5.38L45.6 37c-1.63 2.06-2.9 1.59-2.83-1l.72-25.79a3.23 3.23 0 0 1 4.61-3.15z" class="cls-5"></path><path _ngcontent-vcb-c62="" d="M35.79 6.93a3.24 3.24 0 0 1 4.62 3.15l.71 25.74c.07 2.62-1.2 3.09-2.83 1l-16-20.22a3.23 3.23 0 0 1 1.52-5.36z" class="cls-1"></path><path _ngcontent-vcb-c62="" d="M14.28 19.08a3.24 3.24 0 0 1 5.56-.56l17.09 19.27c1.74 2 1.06 3.14-1.51 2.61l-25.27-5.19a3.23 3.23 0 0 1-2.28-5.09z" class="cls-5"></path><path _ngcontent-vcb-c62="" d="M5.6 42.23a3.24 3.24 0 0 1 3.9-4L35 42c2.6.38 2.83 1.72.52 3L12.81 57.24a3.23 3.23 0 0 1-5-2.43z" class="cls-4"></path><path _ngcontent-vcb-c62="" d="M13.84 65.53a3.24 3.24 0 0 1 .41-5.53l21.94-13.53c2.24-1.37 3.27-.5 2.31 1.94l-9.5 24a3.23 3.23 0 0 1-5.41 1.36z" class="cls-1"></path><path _ngcontent-vcb-c62="" d="M26 74.83a3.84 3.84 0 0 1-2.46-1l-9.76-8.23a3.36 3.36 0 0 1 .43-5.77l21.92-13.46A3.73 3.73 0 0 1 38 45.7a1 1 0 0 1 .83.39c.32.46.26 1.28-.17 2.36l-9.5 24A3.42 3.42 0 0 1 26 74.83zm12-28.89a3.56 3.56 0 0 0-1.7.63L14.31 60.06a3.13 3.13 0 0 0-.4 5.38l9.76 8.23a3.6 3.6 0 0 0 2.3.93 3.19 3.19 0 0 0 2.91-2.24l9.5-24c.39-1 .46-1.75.2-2.14a.71.71 0 0 0-.58-.28z" class="cls-1"></path><circle _ngcontent-vcb-c62="" cx="41.72" cy="42.53" r="2.06" transform="rotate(-44.86 41.72 42.527)" class="cls-5"></circle><path _ngcontent-vcb-c62="" d="M10.36 30.55c.42-.9 1.7-.75 2.84.33s.8 1.82-.77 1.64-2.5-1.06-2.07-1.97zm14.99 1.14c.42-.9 1.7-.75 2.85.33s.8 1.82-.77 1.64-2.5-1.07-2.08-1.97zm-1.5 36.02c-.83-.55-.5-1.79.74-2.77s1.91-.53 1.51 1-1.42 2.32-2.25 1.77zM54.39 57.6c-.82.56-1.85-.22-2.28-1.73s.24-2 1.49-1 1.61 2.13.79 2.73z" class="cls-6"></path></g></g></svg>